<svg width="11" height="12" viewBox="0 0 11 12" fill="none" xmlns="http://www.w3.org/2000/svg">
<g clip-path="url(#clip0_1_333)">
<path d="M10.8604 3.02188C10.7601 2.91446 10.6366 2.85896 10.4897 2.85538C10.3429 2.8518 10.2194 2.90014 10.1191 3.0004L5.5 7.37247L0.880858 3.0004C0.780598 2.90014 0.657063 2.8518 0.510253 2.85538C0.363443 2.85896 0.239908 2.91446 0.139647 3.02188C0.039387 3.1293 -0.00716248 3.25463 -1.0173e-06 3.39786C0.00716044 3.54109 0.0608714 3.66283 0.161132 3.76309L5.13476 8.47891C5.1849 8.52188 5.24219 8.5559 5.30664 8.58096C5.37109 8.60603 5.43555 8.61856 5.5 8.61856C5.56445 8.61856 5.62711 8.60603 5.68799 8.58096C5.74886 8.5559 5.80794 8.52188 5.86523 8.47891L10.8389 3.76309C10.9391 3.66283 10.9928 3.54109 11 3.39786C11.0072 3.25463 10.9606 3.1293 10.8604 3.02188Z" fill="#101010"/>
</g>
<defs>
<clipPath id="clip0_1_333">
<rect width="11" height="11.2" fill="white" transform="matrix(1 0 0 -1 0 11.2)"/>
</clipPath>
</defs>
</svg>
