<svg width="12" height="12" viewBox="0 0 12 12" fill="none" xmlns="http://www.w3.org/2000/svg">
<g clip-path="url(#clip0_1_337)">
<path d="M11.5204 3.72186C11.4201 3.61444 11.2966 3.55894 11.1498 3.55536C11.003 3.55178 10.8794 3.60012 10.7792 3.70038L6.16005 8.07245L1.54091 3.70038C1.44065 3.60012 1.31711 3.55178 1.1703 3.55536C1.02349 3.55894 0.899957 3.61444 0.799697 3.72186C0.699436 3.82928 0.652887 3.95461 0.660048 4.09784C0.66721 4.24107 0.720921 4.36281 0.821181 4.46307L5.79481 9.17889C5.84494 9.22186 5.90224 9.25588 5.96669 9.28094C6.03114 9.30601 6.0956 9.31854 6.16005 9.31854C6.2245 9.31854 6.28716 9.30601 6.34804 9.28094C6.40891 9.25588 6.46799 9.22186 6.52528 9.17889L11.4989 4.46307C11.5992 4.36281 11.6529 4.24107 11.66 4.09784C11.6672 3.95461 11.6207 3.82928 11.5204 3.72186Z" fill="#101010"/>
</g>
<defs>
<clipPath id="clip0_1_337">
<rect width="11" height="11.2" fill="white" transform="matrix(1 0 0 -1 0.660034 11.9)"/>
</clipPath>
</defs>
</svg>
